<svg xmlns="http://www.w3.org/2000/svg" width="720" height="320" viewBox="0 0 720 320">
  <defs>
    <linearGradient id="hdr" x1="0%" y1="0%" x2="100%" y2="0%">
      <stop offset="0%" stop-color="#3B82F6"/>
      <stop offset="100%" stop-color="#8B5CF6"/>
    </linearGradient>
  </defs>
  <rect width="720" height="320" fill="#F4F5F7" rx="12"/>
  <rect x="20" y="20" width="680" height="44" fill="#0F172A" rx="8"/>
  <rect x="36" y="32" width="20" height="20" fill="url(#hdr)" rx="4"/>
  <text x="64" y="47" fill="#FFFFFF" font-family="system-ui,sans-serif" font-size="14" font-weight="600">VectorShift · Pipeline Editor</text>
  <text x="560" y="47" fill="#94A3B8" font-family="system-ui,sans-serif" font-size="12">Run Pipeline</text>
  <rect x="20" y="80" width="180" height="220" fill="#0F172A" rx="8"/>
  <text x="36" y="108" fill="#94A3B8" font-family="system-ui,sans-serif" font-size="10" letter-spacing="1">COMPONENTS</text>
  <rect x="36" y="120" width="148" height="28" fill="#1E293B" rx="6"/>
  <rect x="36" y="120" width="3" height="28" fill="#3B82F6" rx="1"/>
  <text x="48" y="138" fill="#F8FAFC" font-family="system-ui,sans-serif" font-size="11">Input</text>
  <rect x="36" y="154" width="148" height="28" fill="#1E293B" rx="6"/>
  <rect x="36" y="154" width="3" height="28" fill="#8B5CF6" rx="1"/>
  <text x="48" y="172" fill="#F8FAFC" font-family="system-ui,sans-serif" font-size="11">LLM</text>
  <rect x="36" y="188" width="148" height="28" fill="#1E293B" rx="6"/>
  <rect x="36" y="188" width="3" height="28" fill="#F59E0B" rx="1"/>
  <text x="48" y="206" fill="#F8FAFC" font-family="system-ui,sans-serif" font-size="11">Text</text>
  <rect x="216" y="80" width="484" height="220" fill="#FFFFFF" stroke="#E5E7EB" rx="8"/>
  <circle cx="240" cy="110" r="1.2" fill="#D6DAE1"/>
  <circle cx="260" cy="110" r="1.2" fill="#D6DAE1"/>
  <circle cx="280" cy="110" r="1.2" fill="#D6DAE1"/>
  <rect x="280" y="150" width="100" height="56" fill="#FFFFFF" stroke="#3B82F6" stroke-width="2" rx="8"/>
  <rect x="280" y="150" width="100" height="3" fill="#3B82F6" rx="1"/>
  <text x="292" y="172" fill="#1C2536" font-family="system-ui,sans-serif" font-size="11" font-weight="600">Input</text>
  <rect x="420" y="150" width="100" height="56" fill="#FFFFFF" stroke="#F59E0B" stroke-width="2" rx="8"/>
  <rect x="420" y="150" width="100" height="3" fill="#F59E0B" rx="1"/>
  <text x="432" y="172" fill="#1C2536" font-family="system-ui,sans-serif" font-size="11" font-weight="600">Text</text>
  <line x1="380" y1="178" x2="418" y2="178" stroke="#94A3B8" stroke-width="2" marker-end="url(#arrow)"/>
  <rect x="560" y="150" width="100" height="56" fill="#FFFFFF" stroke="#10B981" stroke-width="2" rx="8"/>
  <rect x="560" y="150" width="100" height="3" fill="#10B981" rx="1"/>
  <text x="572" y="172" fill="#1C2536" font-family="system-ui,sans-serif" font-size="11" font-weight="600">Output</text>
  <line x1="520" y1="178" x2="558" y2="178" stroke="#94A3B8" stroke-width="2"/>
</svg>
