<svg xmlns="http://www.w3.org/2000/svg" width="640" height="200" viewBox="0 0 640 200">
  <rect width="640" height="200" fill="#FAFBFC" rx="12"/>
  <text x="24" y="32" fill="#1C2536" font-family="system-ui,sans-serif" font-size="15" font-weight="700">Part 4  Run Pipeline flow</text>
  <!-- Frontend -->
  <rect x="24" y="56" width="120" height="100" fill="#EFF6FF" stroke="#3B82F6" rx="8"/>
  <text x="44" y="84" fill="#1E40AF" font-family="system-ui,sans-serif" font-size="12" font-weight="600">Frontend</text>
  <text x="36" y="104" fill="#6B7280" font-family="monospace" font-size="10">:3000</text>
  <text x="36" y="124" fill="#6B7280" font-family="monospace" font-size="10">submit.js</text>
  <text x="36" y="144" fill="#6B7280" font-family="system-ui,sans-serif" font-size="10">Run Pipeline</text>
  <!-- Arrow -->
  <line x1="144" y1="106" x2="200" y2="106" stroke="#3B82F6" stroke-width="2"/>
  <polygon points="200,106 192,102 192,110" fill="#3B82F6"/>
  <text x="148" y="96" fill="#6B7280" font-family="monospace" font-size="9">POST /pipelines/parse</text>
  <!-- Backend -->
  <rect x="204" y="56" width="120" height="100" fill="#F0FDF4" stroke="#10B981" rx="8"/>
  <text x="224" y="84" fill="#047857" font-family="system-ui,sans-serif" font-size="12" font-weight="600">Backend</text>
  <text x="216" y="104" fill="#6B7280" font-family="monospace" font-size="10">:8000</text>
  <text x="216" y="124" fill="#6B7280" font-family="monospace" font-size="10">main.py</text>
  <text x="216" y="144" fill="#6B7280" font-family="system-ui,sans-serif" font-size="10">Kahn's DAG</text>
  <!-- Response -->
  <line x1="324" y1="106" x2="380" y2="106" stroke="#10B981" stroke-width="2"/>
  <polygon points="380,106 372,102 372,110" fill="#10B981"/>
  <rect x="384" y="72" width="232" height="68" fill="#FFFFFF" stroke="#E5E7EB" rx="8"/>
  <text x="400" y="96" fill="#1C2536" font-family="monospace" font-size="11">{ num_nodes, num_edges, is_dag }</text>
  <text x="400" y="118" fill="#6B7280" font-family="system-ui,sans-serif" font-size="10">’ Ant Design Modal</text>
</svg>
